<svg id="svg446" width="1587.4" height="1285" version="1.1" viewBox="0 0 1587.4 1285" xml:space="preserve" xmlns="http://www.w3.org/2000/svg" xmlns:cc="http://creativecommons.org/ns#" xmlns:dc="http://purl.org/dc/elements/1.1/" xmlns:rdf="http://www.w3.org/1999/02/22-rdf-syntax-ns#" style="
    /* font-size: 11px; */
">

<style id="1">
.slanted-bottom,.align-right {
    text-anchor:end;
    text-align:end;
}
.slanted-bottom {
    font-size:1em;
}

.end-station {
  font-size: 1.1em;
}
</style>

<metadata id="metadata452"><rdf:rdf><cc:work rdf:about=""><dc:format>image/svg+xml</dc:format><dc:type rdf:resource="http://purl.org/dc/dcmitype/StillImage"></dc:type><dc:title></dc:title></cc:work></rdf:rdf></metadata><defs id="defs450"><clipPath id="clipPath462"><path id="path460" d="m0 0h1190.6v963.78h-1190.6z"></path></clipPath><clipPath id="clipPath474"><path id="path472" d="M 0,963.78 H 1190.55 V 0 H 0 Z"></path></clipPath><clipPath id="clipPath620"><path id="path618" d="m0 0h1190.6v963.78h-1190.6z"></path></clipPath></defs><g id="g454" transform="matrix(1.3333 0 0 -1.3333 0 1285)"><g id="g456"><g id="g458" clip-path="url(#clipPath462)"><g id="g464" transform="translate(1003.2 759.09)"><path id="path466" d="m0 0-115.23-115.23c-3.721-3.721-5.812-8.768-5.812-14.031v-46.692" style="fill:none;stroke-width:7.778;stroke:#db0812"></path></g></g></g><g id="g468"><g id="g470" clip-path="url(#clipPath474)"><g id="g476" transform="translate(14.199 17.866)"><path id="path478" d="m0 0c-0.187 0.204-0.228 0.472-0.228 0.868 0 0.385 0.065 0.636 0.246 0.828 0.139 0.14 0.343 0.222 0.617 0.222 0.449 0 0.706-0.239 0.764-0.549l-0.391-0.087c-0.058 0.152-0.157 0.274-0.367 0.274-0.391 0-0.431-0.344-0.431-0.694 0-0.32 0.012-0.74 0.431-0.74 0.216 0 0.315 0.117 0.385 0.338l0.402-0.099c-0.07-0.332-0.297-0.606-0.793-0.606-0.291 0-0.495 0.088-0.635 0.245m2.314 0.856c0 0.933-0.74 1.697-1.679 1.697-0.927 0-1.667-0.764-1.667-1.697 0-0.926 0.74-1.696 1.667-1.696 0.939 0 1.679 0.77 1.679 1.696m-3.777 0c0 1.161 0.939 2.105 2.098 2.105 1.166 0 2.105-0.944 2.105-2.105 0-1.16-0.939-2.103-2.105-2.103-1.159 0-2.098 0.943-2.098 2.103"></path></g><g id="g480" transform="translate(20.668 18.269)"><path id="path482" d="m0 0-0.565 1.836-0.542-1.836zm-0.985 2.465h0.857l1.271-4.022h-0.671l-0.303 1.009h-1.434l-0.297-1.009h-0.647z"></path></g><g id="g484" transform="translate(23.608 17.23)"><path id="path486" d="m0 0c0.309 0 0.729 0.111 0.729 0.636 0 0.426-0.251 0.664-0.77 0.664h-0.588v-1.3zm-0.087 1.796c0.437 0 0.752 0.134 0.752 0.611 0 0.432-0.321 0.595-0.694 0.595h-0.6v-1.206zm-1.189 1.707h1.363c0.309 0 0.531-0.046 0.717-0.146 0.321-0.163 0.508-0.465 0.508-0.874 0-0.42-0.164-0.722-0.636-0.903 0.437-0.1 0.723-0.455 0.723-0.974 0-0.39-0.163-0.716-0.443-0.909-0.192-0.139-0.426-0.216-0.787-0.216h-1.445z"></path></g><g id="g488" transform="translate(26.666 17.195)"><path id="path490" d="m0 0 0.396 0.473c0.239-0.245 0.641-0.491 1.073-0.491 0.396 0 0.676 0.193 0.676 0.543 0 0.327-0.216 0.484-0.811 0.717-0.681 0.268-1.206 0.519-1.206 1.277 0 0.716 0.589 1.113 1.317 1.113 0.502 0 0.956-0.198 1.283-0.501l-0.379-0.467c-0.216 0.216-0.554 0.42-0.927 0.42-0.344 0-0.647-0.175-0.647-0.524 0-0.356 0.297-0.502 0.81-0.695 0.659-0.25 1.23-0.524 1.23-1.27 0-0.776-0.571-1.171-1.34-1.171-0.677 0-1.178 0.273-1.475 0.576"></path></g><g id="g492" transform="translate(30.235 17.435)"><path id="path494" d="m0 0v1.726h-0.455v0.465h0.455v0.823l0.612 0.169v-0.992h0.612v-0.465h-0.612v-1.638c0-0.228 0.035-0.361 0.391-0.361 0.064 0 0.157 0.011 0.245 0.022v-0.489c-0.175-0.024-0.28-0.03-0.403-0.03-0.466 0-0.845 0.124-0.845 0.77"></path></g><g id="g496" transform="translate(33.688 18.222)"><path id="path498" d="m0 0c0 0.432-0.076 0.985-0.583 0.985-0.519 0-0.588-0.559-0.588-1.003 0-0.524 0.069-1.066 0.588-1.066 0.507 0 0.583 0.542 0.583 1.084m-1.795-0.029c0 0.845 0.309 1.48 1.212 1.48 0.898 0 1.207-0.63 1.207-1.504 0-0.915-0.332-1.504-1.207-1.504-0.903 0-1.212 0.63-1.212 1.528"></path></g><g id="g500" transform="translate(34.867 19.626)"><path id="path502" d="m0 0h0.56v-0.693c0.245 0.437 0.571 0.74 1.008 0.74h0.076v-0.624c-0.029 0-0.059 6e-3 -0.093 6e-3 -0.572 0-0.886-0.402-0.945-0.863v-1.48h-0.606z"></path></g><g id="g504" transform="translate(36.798 16.98)"><path id="path506" d="m0 0 0.268 0.425c0.204-0.163 0.496-0.268 0.752-0.268 0.263 0 0.478 0.081 0.478 0.321 0 0.239-0.233 0.332-0.588 0.483-0.478 0.192-0.846 0.42-0.846 0.887 0 0.571 0.426 0.844 1.015 0.844 0.349 0 0.664-0.098 0.938-0.261l-0.262-0.42c-0.193 0.128-0.455 0.227-0.688 0.227-0.239 0-0.443-0.082-0.443-0.303 0-0.222 0.221-0.309 0.577-0.455 0.402-0.164 0.868-0.367 0.868-0.898 0-0.6-0.431-0.897-1.049-0.897-0.414 0-0.746 0.128-1.02 0.315"></path></g><g id="g508" transform="translate(39.609 17.435)"><path id="path510" d="m0 0v1.726h-0.455v0.465h0.455v0.823l0.612 0.169v-0.992h0.612v-0.465h-0.612v-1.638c0-0.228 0.035-0.361 0.391-0.361 0.064 0 0.157 0.011 0.245 0.022v-0.489c-0.175-0.024-0.28-0.03-0.403-0.03-0.466 0-0.845 0.124-0.845 0.77"></path></g><g id="g512" transform="translate(43.062 18.222)"><path id="path514" d="m0 0c0 0.432-0.076 0.985-0.583 0.985-0.519 0-0.588-0.559-0.588-1.003 0-0.524 0.069-1.066 0.588-1.066 0.507 0 0.583 0.542 0.583 1.084m-1.795-0.029c0 0.845 0.309 1.48 1.212 1.48 0.898 0 1.207-0.63 1.207-1.504 0-0.915-0.332-1.504-1.207-1.504-0.903 0-1.212 0.63-1.212 1.528"></path></g><g id="g516" transform="translate(44.189 18.175)"><path id="path518" d="m0 0c0 0.938 0.402 1.498 1.259 1.498 0.425 0 0.694-0.145 0.915-0.326l-0.286-0.408c-0.157 0.139-0.349 0.262-0.612 0.262-0.513 0-0.652-0.449-0.652-1.02 0-0.577 0.127-1.037 0.664-1.037 0.239 0 0.425 0.093 0.647 0.273l0.28-0.408c-0.21-0.163-0.531-0.344-0.968-0.344-0.874 0-1.247 0.613-1.247 1.51"></path></g><g id="g520" transform="translate(46.883 20.733)"><path id="path522" d="m0 0h0.606v-2.372l1.044 1.265h0.717l-0.939-1.09 0.991-1.824h-0.676l-0.705 1.358-0.432-0.496v-0.862h-0.606z"></path></g><g id="g524" transform="translate(49.736 20.733)"><path id="path526" d="m0 0h0.606v-1.475c0.216 0.169 0.578 0.414 0.968 0.414 0.53 0 0.729-0.291 0.729-0.757v-2.203h-0.607v2.063c0 0.228-0.075 0.396-0.355 0.396-0.193 0-0.508-0.145-0.735-0.314v-2.145h-0.606z"></path></g><g id="g528" transform="translate(54.413 18.222)"><path id="path530" d="m0 0c0 0.432-0.076 0.985-0.583 0.985-0.519 0-0.588-0.559-0.588-1.003 0-0.524 0.069-1.066 0.588-1.066 0.507 0 0.583 0.542 0.583 1.084m-1.795-0.029c0 0.845 0.309 1.48 1.212 1.48 0.898 0 1.207-0.63 1.207-1.504 0-0.915-0.332-1.504-1.207-1.504-0.903 0-1.212 0.63-1.212 1.528"></path></g><path id="path532" d="m55.592 20.733h0.606v-4.021h-0.606z"></path><g id="g534" transform="translate(56.887 19.626)"><path id="path536" d="m0 0h0.571v-0.396c0.216 0.192 0.595 0.443 0.968 0.443s0.589-0.175 0.653-0.448c0.245 0.209 0.612 0.448 0.974 0.448 0.53 0 0.705-0.332 0.705-0.758v-2.203h-0.607v2.063c0 0.24-0.081 0.397-0.326 0.397-0.187 0-0.49-0.151-0.7-0.315v-2.145h-0.606v2.063c0 0.246-0.081 0.397-0.326 0.397-0.181 0-0.49-0.157-0.7-0.315v-2.145h-0.606z"></path></g><g id="g538" transform="translate(61.286 16.98)"><path id="path540" d="m0 0 0.268 0.425c0.204-0.163 0.496-0.268 0.752-0.268 0.263 0 0.478 0.081 0.478 0.321 0 0.239-0.233 0.332-0.588 0.483-0.478 0.192-0.846 0.42-0.846 0.887 0 0.571 0.426 0.844 1.015 0.844 0.349 0 0.664-0.098 0.938-0.261l-0.263-0.42c-0.192 0.128-0.454 0.227-0.687 0.227-0.239 0-0.443-0.082-0.443-0.303 0-0.222 0.221-0.309 0.577-0.455 0.402-0.164 0.868-0.367 0.868-0.898 0-0.6-0.431-0.897-1.049-0.897-0.414 0-0.746 0.128-1.02 0.315"></path></g><g id="g542" transform="translate(65.188 20.733)"><path id="path544" d="m0 0h0.647v-3.456h1.812v-0.565h-2.459z"></path></g><g id="g546" transform="translate(69.812 18.222)"><path id="path548" d="m0 0c0 0.432-0.076 0.985-0.583 0.985-0.519 0-0.588-0.559-0.588-1.003 0-0.524 0.069-1.066 0.588-1.066 0.507 0 0.583 0.542 0.583 1.084m-1.795-0.029c0 0.845 0.309 1.48 1.212 1.48 0.898 0 1.207-0.63 1.207-1.504 0-0.915-0.332-1.504-1.207-1.504-0.903 0-1.212 0.63-1.212 1.528"></path></g><g id="g550" transform="translate(70.992 20.733)"><path id="path552" d="m0 0h0.606v-2.372l1.044 1.265h0.717l-0.939-1.09 0.991-1.824h-0.676l-0.705 1.358-0.432-0.496v-0.862h-0.606z"></path></g><g id="g554" transform="translate(75.296 17.47)"><path id="path556" d="m0 0v0.711c-0.577-0.122-1.026-0.274-1.026-0.676 0-0.216 0.146-0.385 0.402-0.385 0.263 0 0.484 0.204 0.624 0.35m-1.621-0.035c0 0.344 0.164 0.653 0.613 0.857 0.297 0.134 0.658 0.209 1.008 0.262v0.21c0 0.251-0.111 0.443-0.437 0.443-0.321 0-0.595-0.117-0.845-0.303l-0.28 0.402c0.28 0.192 0.641 0.367 1.171 0.367 0.56 0 1.003-0.239 1.003-0.833v-1.474c0-0.147 0.053-0.251 0.216-0.251v-0.426h-0.152c-0.437 0-0.542 0.227-0.6 0.443-0.227-0.245-0.502-0.467-0.921-0.467-0.408 0-0.776 0.263-0.776 0.77"></path></g><path id="path558" d="m76.639 20.733h0.606v-4.021h-0.606z"></path><g id="g560" transform="translate(78.155 17.435)"><path id="path562" d="m0 0v1.726h-0.455v0.465h0.455v0.823l0.612 0.169v-0.992h0.612v-0.465h-0.612v-1.638c0-0.228 0.035-0.361 0.391-0.361 0.064 0 0.157 0.011 0.245 0.022v-0.489c-0.175-0.024-0.28-0.03-0.403-0.03-0.466 0-0.845 0.124-0.845 0.77"></path></g><g id="g564" transform="translate(79.952 19.626)"><path id="path566" d="m0 0h0.56v-0.693c0.245 0.437 0.571 0.74 1.008 0.74h0.076v-0.624c-0.029 0-0.059 6e-3 -0.093 6e-3 -0.572 0-0.886-0.402-0.945-0.863v-1.48h-0.606z"></path></g><g id="g568" transform="translate(83.515 17.47)"><path id="path570" d="m0 0v0.711c-0.577-0.122-1.026-0.274-1.026-0.676 0-0.216 0.146-0.385 0.402-0.385 0.263 0 0.484 0.204 0.624 0.35m-1.621-0.035c0 0.344 0.163 0.653 0.613 0.857 0.297 0.134 0.658 0.209 1.008 0.262v0.21c0 0.251-0.111 0.443-0.437 0.443-0.321 0-0.595-0.117-0.845-0.303l-0.28 0.402c0.28 0.192 0.641 0.367 1.171 0.367 0.56 0 1.003-0.239 1.003-0.833v-1.474c0-0.147 0.053-0.251 0.216-0.251v-0.426h-0.152c-0.437 0-0.542 0.227-0.6 0.443-0.228-0.245-0.502-0.467-0.921-0.467-0.408 0-0.776 0.263-0.776 0.77"></path></g><path id="path572" d="m86.577 19.626h0.606v-2.914h-0.606zm0 1.038h0.606v-0.595h-0.606zm-1.538-1.504h-0.449v0.466h0.449v0.432c0 0.296 0.064 0.466 0.192 0.583 0.145 0.128 0.361 0.186 0.647 0.186 0.105 0 0.286-6e-3 0.396-0.023v-0.49c-0.07 0.012-0.169 0.018-0.233 0.018-0.355 0-0.396-0.123-0.396-0.351v-0.355h0.542v-0.466h-0.542v-2.448h-0.606z"></path><g id="g574" transform="translate(87.902 20.733)"><path id="path576" d="m0 0h0.606v-2.372l1.044 1.265h0.717l-0.939-1.09 0.991-1.824h-0.676l-0.705 1.358-0.432-0.496v-0.862h-0.606z"></path></g><g id="g578" transform="translate(19.718 12.336)"><path id="path580" d="m0 0c0.39 0.32 0.868 0.67 0.868 1.125 0 0.385-0.262 0.636-0.635 0.636-0.437 0-0.665-0.281-0.694-0.665h-0.6c0.012 0.699 0.524 1.172 1.317 1.172 0.746 0 1.259-0.473 1.259-1.149 0-0.565-0.355-0.938-0.927-1.381-0.518-0.402-0.851-0.706-1.014-1.044h1.959v-0.542h-2.623c0.041 0.851 0.373 1.259 1.09 1.848"></path></g><g id="g582" transform="translate(23.94 12.54)"><path id="path584" d="m0 0c0 0.862-0.157 1.557-0.752 1.557-0.588 0-0.746-0.701-0.746-1.604 0-0.891 0.158-1.591 0.746-1.591 0.589 0 0.752 0.664 0.752 1.638m-2.139-0.047c0 1.178 0.355 2.11 1.393 2.11 1.043 0 1.393-0.956 1.393-2.045 0-1.23-0.35-2.164-1.393-2.164-1.044 0-1.393 0.951-1.393 2.099"></path></g><g id="g586" transform="translate(25.277 10.995)"><path id="path588" d="m0 0h0.758v2.815l-0.84-0.571v0.601l0.88 0.67h0.583v-3.515h0.671v-0.507h-2.052z"></path></g><g id="g590" transform="translate(29.511 13.974)"><path id="path592" d="m0 0h-2.017v0.536h2.664v-0.431c-0.524-1.02-1.3-2.628-1.585-3.59h-0.694c0.326 1.014 1.096 2.552 1.632 3.485"></path></g><path id="path594" d="m30.2 11.182h0.653v-0.693h-0.653z"></path><g id="g596" transform="translate(33.664 12.54)"><path id="path598" d="m0 0c0 0.862-0.157 1.557-0.752 1.557-0.588 0-0.746-0.701-0.746-1.604 0-0.891 0.158-1.591 0.746-1.591 0.589 0 0.752 0.664 0.752 1.638m-2.139-0.047c0 1.178 0.355 2.11 1.393 2.11 1.043 0 1.393-0.956 1.393-2.045 0-1.23-0.35-2.164-1.393-2.164-1.044 0-1.393 0.951-1.393 2.099"></path></g><g id="g600" transform="translate(36.82 13.537)"><path id="path602" d="m0 0c0 0.309-0.216 0.565-0.641 0.565-0.432 0-0.63-0.286-0.63-0.559 0-0.345 0.257-0.52 0.63-0.694 0.367 0.163 0.641 0.344 0.641 0.688m0.123-1.982c0 0.378-0.257 0.653-0.764 0.822-0.536-0.198-0.752-0.467-0.752-0.817 0-0.442 0.32-0.658 0.758-0.658 0.437 0 0.758 0.21 0.758 0.653m-2.157-0.041c0 0.525 0.28 0.892 0.851 1.108-0.42 0.181-0.717 0.501-0.717 0.955 0 0.642 0.507 1.026 1.271 1.026 0.775 0 1.258-0.408 1.258-1.026 0-0.448-0.279-0.769-0.716-0.955 0.536-0.198 0.851-0.56 0.851-1.103 0-0.605-0.502-1.125-1.405-1.125-0.974 0-1.393 0.595-1.393 1.12"></path></g><path id="path604" d="m38.209 11.182h0.653v-0.693h-0.653z"></path><g id="g606" transform="translate(39.96 10.995)"><path id="path608" d="m0 0h0.758v2.815l-0.84-0.571v0.601l0.88 0.67h0.583v-3.515h0.671v-0.507h-2.052z"></path></g><g id="g610" transform="translate(44.351 13.537)"><path id="path612" d="m0 0c0 0.309-0.216 0.565-0.641 0.565-0.432 0-0.63-0.286-0.63-0.559 0-0.345 0.257-0.52 0.63-0.694 0.367 0.163 0.641 0.344 0.641 0.688m0.123-1.982c0 0.378-0.257 0.653-0.764 0.822-0.536-0.198-0.752-0.467-0.752-0.817 0-0.442 0.32-0.658 0.758-0.658 0.437 0 0.758 0.21 0.758 0.653m-2.157-0.041c0 0.525 0.28 0.892 0.851 1.108-0.42 0.181-0.717 0.501-0.717 0.955 0 0.642 0.507 1.026 1.271 1.026 0.775 0 1.258-0.408 1.258-1.026 0-0.448-0.279-0.769-0.716-0.955 0.536-0.198 0.851-0.56 0.851-1.103 0-0.605-0.502-1.125-1.405-1.125-0.974 0-1.393 0.595-1.393 1.12"></path></g></g></g><g id="g614"><g id="g616" clip-path="url(#clipPath620)"><g id="g622" transform="translate(1000.9 571.48)"><path id="path624" d="m0 0h-317.99c-10.958 0-19.842 8.884-19.842 19.843v100.42c0 5.263-2.092 10.31-5.813 14.031l-200.05 200.05" style="fill:none;stroke-width:7.778;stroke:#008dd0"></path></g><g id="g626" transform="translate(235.69 905.07)"><path id="path628" d="m0 0 201.85-201.85c3.717-3.718 8.761-5.809 14.019-5.811l204.24-0.106c4.017-3e-3 7.272-3.26 7.272-7.276v-14.795" style="fill:none;stroke-width:7.778;stroke:#008dd0"></path></g><g id="g630" transform="translate(882.17 910.21)"><path id="path632" d="m0 0v-478.63c0-10.959-8.884-19.843-19.843-19.843h-400.8c-5.263 0-10.311-2.089-14.031-5.811l-341.14-341.14" style="fill:none;stroke-width:7.778;stroke:#db0812"></path></g><g id="g634" transform="translate(473.07 250.83)"><path id="path636" d="m0 0 155.09 155.09c3.722 3.723 8.769 5.812 14.031 5.812h18.683" style="fill:none;stroke-width:7.778;stroke:#db0812"></path></g><g id="g638" transform="translate(565.91 73.478)"><path id="path640" d="m0 0 320.87 320.87c3.721 3.722 5.811 8.769 5.811 14.03v23.605" style="fill:none;stroke-width:7.778;stroke:#04a64a"></path></g><g id="g642" transform="translate(892.59 65.443)"><path id="path644" d="m0 0v511.82c0 7.306-5.923 13.229-13.229 13.229h-792.14" style="fill:none;stroke-width:7.778;stroke:#04a64a"></path></g><g id="g646" transform="translate(563.34 697.29)"><path id="path648" d="m0 0c0-1.105-0.896-2.001-2.003-2.001-1.105 0-2 0.896-2 2.001 0 1.106 0.895 2.003 2 2.003 1.107 0 2.003-0.897 2.003-2.003" style="fill:#fff"></path></g><g id="g650" transform="translate(665.1 650.34)"><path id="path652" d="m0 0c0-1.105-0.896-2.002-2.002-2.002-1.105 0-2.001 0.897-2.001 2.002s0.896 2.002 2.001 2.002c1.106 0 2.002-0.897 2.002-2.002" style="fill:#fff"></path></g><g id="g654" transform="translate(665.12 687.99)"><path id="path656" d="m0 0c0-1.105-0.896-2.002-2.002-2.002-1.105 0-2.001 0.897-2.001 2.002 0 1.106 0.896 2.002 2.001 2.002 1.106 0 2.002-0.896 2.002-2.002" style="fill:#fff"></path></g><g id="g658" transform="translate(884.19 722.55)"><path id="path660" d="m0 0c0-1.105-0.896-2.001-2.003-2.001-1.104 0-2.002 0.896-2.002 2.001 0 1.106 0.898 2.003 2.002 2.003 1.107 0 2.003-0.897 2.003-2.003" style="fill:#fff"></path></g><g id="g662" transform="translate(884.21 804.47)"><path id="path664" d="m0 0c0-1.105-0.896-2.001-2.002-2.001-1.104 0-2.001 0.896-2.001 2.001 0 1.107 0.897 2.003 2.001 2.003 1.106 0 2.002-0.896 2.002-2.003" style="fill:#fff"></path></g><g id="g666" transform="translate(884.14 763.3)"><path id="path668" d="m0 0c0-1.105-0.896-2.001-2.002-2.001-1.105 0-2.001 0.896-2.001 2.001 0 1.107 0.896 2.003 2.001 2.003 1.106 0 2.002-0.896 2.002-2.003" style="fill:#fff"></path></g><g id="g670" transform="translate(884.21 838.25)"><path id="path672" d="m0 0c0-1.105-0.917-2.001-2.049-2.001-1.13 0-2.048 0.896-2.048 2.001 0 1.107 0.918 2.003 2.048 2.003 1.132 0 2.049-0.896 2.049-2.003" style="fill:#fff"></path></g><g id="g674" transform="translate(884.16 872.03)"><path id="path676" d="m0 0c0-1.105-0.896-2.001-2.002-2.001-1.105 0-2.002 0.896-2.002 2.001 0 1.106 0.897 2.003 2.002 2.003 1.106 0 2.002-0.897 2.002-2.003" style="fill:#fff"></path></g><g id="g678" transform="translate(924.07 677.71)"><path id="path680" d="m0 0c0-1.105-0.896-2.001-2.001-2.001s-2.002 0.896-2.002 2.001c0 1.107 0.897 2.003 2.002 2.003s2.001-0.896 2.001-2.003" style="fill:#fff"></path></g><g id="g682" transform="translate(884.17 628.87)"><path id="path684" d="m0 0c0-1.105-0.896-2.001-2.002-2.001-1.105 0-2.001 0.896-2.001 2.001 0 1.107 0.896 2.003 2.001 2.003 1.106 0 2.002-0.896 2.002-2.003" style="fill:#fff"></path></g><g id="g686" transform="translate(638.59 590.48)"><path id="path688" d="m0 0c0-1.105-0.896-2.002-2.003-2.002-1.104 0-2.001 0.897-2.001 2.002 0 1.106 0.897 2.003 2.001 2.003 1.107 0 2.003-0.897 2.003-2.003" style="fill:#fff"></path></g><g id="g690" transform="translate(598.29 590.47)"><path id="path692" d="m0 0c0-1.105-0.897-2.002-2.004-2.002-1.104 0-2 0.897-2 2.002 0 1.106 0.896 2.002 2 2.002 1.107 0 2.004-0.896 2.004-2.002" style="fill:#fff"></path></g><g id="g694" transform="translate(714.2 590.47)"><path id="path696" d="m0 0c0-1.105-0.896-2.002-2.002-2.002-1.105 0-2.001 0.897-2.001 2.002 0 1.106 0.896 2.002 2.001 2.002 1.106 0 2.002-0.896 2.002-2.002" style="fill:#fff"></path></g><g id="g698" transform="translate(753.45 590.46)"><path id="path700" d="m0 0c0-1.105-0.896-2.002-2.002-2.002-1.105 0-2.001 0.897-2.001 2.002 0 1.106 0.896 2.003 2.001 2.003 1.106 0 2.002-0.897 2.002-2.003" style="fill:#fff"></path></g><g id="g702" transform="translate(794.06 590.48)"><path id="path704" d="m0 0c0-1.105-0.896-2.002-2.003-2.002-1.104 0-2 0.897-2 2.002 0 1.106 0.896 2.002 2 2.002 1.107 0 2.003-0.896 2.003-2.002" style="fill:#fff"></path></g><g id="g706" transform="translate(831.52 590.49)"><path id="path708" d="m0 0c0-1.105-0.896-2.002-2.002-2.002s-2.001 0.897-2.001 2.002c0 1.106 0.895 2.003 2.001 2.003s2.002-0.897 2.002-2.003" style="fill:#fff"></path></g><g id="g710" transform="translate(894.59 472.85)"><path id="path712" d="m0 0c0-1.104-0.896-2.002-2.002-2.002-1.105 0-2.001 0.898-2.001 2.002 0 1.106 0.896 2.002 2.001 2.002 1.106 0 2.002-0.896 2.002-2.002" style="fill:#fff"></path></g><g id="g714" transform="translate(894.57 441.84)"><path id="path716" d="m0 0c0-1.105-0.897-2.001-2.003-2.001-1.105 0-2.001 0.896-2.001 2.001 0 1.106 0.896 2.003 2.001 2.003 1.106 0 2.003-0.897 2.003-2.003" style="fill:#fff"></path></g><g id="g718" transform="translate(894.59 287.81)"><path id="path720" d="m0 0c0-1.105-0.896-2.002-2.002-2.002-1.105 0-2.001 0.897-2.001 2.002 0 1.106 0.896 2.003 2.001 2.003 1.106 0 2.002-0.897 2.002-2.003" style="fill:#fff"></path></g><g id="g722" transform="translate(894.59 225.71)"><path id="path724" d="m0 0c0-1.104-0.896-2.002-2.002-2.002-1.105 0-2.001 0.898-2.001 2.002 0 1.106 0.896 2.002 2.001 2.002 1.106 0 2.002-0.896 2.002-2.002" style="fill:#fff"></path></g><g id="g726" transform="translate(894.59 256.71)"><path id="path728" d="m0 0c0-1.105-0.896-2.002-2.002-2.002-1.105 0-2.001 0.897-2.001 2.002 0 1.106 0.896 2.002 2.001 2.002 1.106 0 2.002-0.896 2.002-2.002" style="fill:#fff"></path></g><g id="g730" transform="translate(894.59 194.71)"><path id="path732" d="m0 0c0-1.104-0.896-2.001-2.002-2.001-1.105 0-2.001 0.897-2.001 2.001 0 1.107 0.896 2.003 2.001 2.003 1.106 0 2.002-0.896 2.002-2.003" style="fill:#fff"></path></g><g id="g734" transform="translate(894.59 163.98)"><path id="path736" d="m0 0c0-1.104-0.896-2.002-2.002-2.002-1.105 0-2.001 0.898-2.001 2.002 0 1.106 0.896 2.002 2.001 2.002 1.106 0 2.002-0.896 2.002-2.002" style="fill:#fff"></path></g><g id="g738" transform="translate(894.59 133.24)"><path id="path740" d="m0 0c0-1.105-0.896-2.001-2.002-2.001-1.105 0-2.001 0.896-2.001 2.001 0 1.106 0.896 2.003 2.001 2.003 1.106 0 2.002-0.897 2.002-2.003" style="fill:#fff"></path></g><g id="g742" transform="translate(894.59 102.38)"><path id="path744" d="m0 0c0-1.105-0.897-2.002-2.003-2.002-1.105 0-2.001 0.897-2.001 2.002s0.896 2.002 2.001 2.002c1.106 0 2.003-0.897 2.003-2.002" style="fill:#fff"></path></g><g id="g746" transform="translate(803.49 411.74)"><path id="path748" d="m0 0c0-1.105-0.896-2.002-2.002-2.002-1.104 0-2.001 0.897-2.001 2.002s0.897 2.002 2.001 2.002c1.106 0 2.002-0.897 2.002-2.002" style="fill:#fff"></path></g><g id="g750" transform="translate(750.93 411.74)"><path id="path752" d="m0 0c0-1.105-0.897-2.002-2.003-2.002-1.105 0-2.001 0.897-2.001 2.002s0.896 2.002 2.001 2.002c1.106 0 2.003-0.897 2.003-2.002" style="fill:#fff"></path></g><g id="g754" transform="translate(698.36 411.74)"><path id="path756" d="m0 0c0-1.105-0.896-2.002-2.003-2.002-1.105 0-2 0.897-2 2.002s0.895 2.002 2 2.002c1.107 0 2.003-0.897 2.003-2.002" style="fill:#fff"></path></g><g id="g758" transform="translate(645.79 411.74)"><path id="path760" d="m0 0c0-1.105-0.896-2.002-2.002-2.002-1.105 0-2.001 0.897-2.001 2.002s0.896 2.002 2.001 2.002c1.106 0 2.002-0.897 2.002-2.002" style="fill:#fff"></path></g><g id="g762" transform="translate(593.23 411.74)"><path id="path764" d="m0 0c0-1.105-0.897-2.002-2.003-2.002-1.105 0-2.001 0.897-2.001 2.002s0.896 2.002 2.001 2.002c1.106 0 2.003-0.897 2.003-2.002" style="fill:#fff"></path></g><g id="g766" transform="translate(540.66 411.74)"><path id="path768" d="m0 0c0-1.105-0.896-2.002-2.002-2.002s-2.001 0.897-2.001 2.002 0.895 2.002 2.001 2.002 2.002-0.897 2.002-2.002" style="fill:#fff"></path></g><g id="g770" transform="translate(488.09 411.74)"><path id="path772" d="m0 0c0-1.105-0.897-2.002-2.003-2.002-1.105 0-2.001 0.897-2.001 2.002s0.896 2.002 2.001 2.002c1.106 0 2.003-0.897 2.003-2.002" style="fill:#fff"></path></g><g id="g774" transform="translate(146.03 102.53)"><path id="path776" d="m0 0c0-1.104-0.897-2.002-2.003-2.002-1.105 0-2.001 0.898-2.001 2.002 0 1.106 0.896 2.003 2.001 2.003 1.106 0 2.003-0.897 2.003-2.003" style="fill:#fff"></path></g><g id="g778" transform="translate(177.64 133.98)"><path id="path780" d="m0 0c0-1.105-0.897-2.003-2.003-2.003-1.105 0-2.001 0.898-2.001 2.003 0 1.106 0.896 2.002 2.001 2.002 1.106 0 2.003-0.896 2.003-2.002" style="fill:#fff"></path></g><g id="g782" transform="translate(433.07 707.56)"><path id="path784" d="m0 0c-0.781-0.781-2.049-0.782-2.832 0-0.781 0.782-0.781 2.049 1e-3 2.831 0.782 0.783 2.049 0.783 2.831 1e-3s0.782-2.05 0-2.832" style="fill:#fff"></path></g><g id="g786" transform="translate(397.93 742.8)"><path id="path788" d="m0 0c-0.782-0.781-2.049-0.782-2.832 0-0.782 0.782-0.781 2.049 1e-3 2.831 0.782 0.783 2.049 0.783 2.831 1e-3s0.782-2.05 0-2.832" style="fill:#fff"></path></g><g id="g790" transform="translate(363.46 777.29)"><path id="path792" d="m0 0c-0.782-0.782-2.049-0.782-2.832 0-0.782 0.782-0.781 2.049 1e-3 2.831 0.782 0.783 2.049 0.783 2.831 1e-3s0.782-2.05 0-2.832" style="fill:#fff"></path></g><g id="g794" transform="translate(330.64 810.03)"><path id="path796" d="m0 0c-0.782-0.782-2.049-0.782-2.832 0-0.782 0.782-0.781 2.049 1e-3 2.831 0.782 0.783 2.049 0.783 2.831 1e-3 0.782-0.783 0.782-2.05 0-2.832" style="fill:#fff"></path></g><g id="g798" transform="translate(297.54 843.24)"><path id="path800" d="m0 0c-0.782-0.781-2.049-0.782-2.832 0-0.782 0.782-0.781 2.049 1e-3 2.831 0.782 0.783 2.049 0.783 2.831 1e-3s0.782-2.05 0-2.832" style="fill:#fff"></path></g><g id="g802" transform="translate(271.03 869.2)"><path id="path804" d="m0 0c-0.782-0.782-2.049-0.782-2.832 0-0.782 0.782-0.781 2.049 1e-3 2.831 0.782 0.783 2.049 0.783 2.831 1e-3 0.782-0.783 0.782-2.05 0-2.832" style="fill:#fff"></path></g><g id="g806" transform="translate(619.2 743.85)"><path id="path808" d="m0 0c-0.782-0.782-2.05-0.782-2.832 0s-0.782 2.049 0 2.831c0.783 0.783 2.05 0.783 2.831 1e-3 0.783-0.783 0.783-2.05 1e-3 -2.832" style="fill:#fff"></path></g><g id="g810" transform="translate(585.66 777.46)"><path id="path812" d="m0 0c-0.782-0.782-2.049-0.782-2.832 0-0.782 0.782-0.781 2.049 1e-3 2.831 0.782 0.783 2.049 0.783 2.831 1e-3 0.782-0.783 0.782-2.05 0-2.832" style="fill:#fff"></path></g><g id="g814" transform="translate(554.34 808.71)"><path id="path816" d="m0 0c-0.782-0.782-2.049-0.782-2.832 0-0.782 0.782-0.781 2.049 1e-3 2.831 0.782 0.783 2.049 0.783 2.831 1e-3 0.782-0.783 0.782-2.05 0-2.832" style="fill:#fff"></path></g><g id="g818" transform="translate(524.11 838.98)"><path id="path820" d="m0 0c-0.782-0.781-2.049-0.782-2.832 0-0.782 0.782-0.781 2.049 1e-3 2.831 0.782 0.783 2.049 0.783 2.831 1e-3s0.782-2.05 0-2.832" style="fill:#fff"></path></g><g id="g822" transform="translate(493.12 870.03)"><path id="path824" d="m0 0c-0.782-0.782-2.049-0.782-2.832 0-0.782 0.782-0.781 2.049 1e-3 2.831 0.782 0.783 2.049 0.783 2.831 1e-3s0.782-2.05 0-2.832" style="fill:#fff"></path></g><g id="g826" transform="translate(602.65 377.62)"><path id="path828" d="m0 0c-0.782-0.782-2.05-0.782-2.832 1e-3 -0.782 0.78-0.782 2.049 0 2.831 0.783 0.781 2.05 0.781 2.832 0 0.782-0.782 0.782-2.051 0-2.832" style="fill:#fff"></path></g><g id="g830" transform="translate(572.52 347.54)"><path id="path832" d="m0 0c-0.781-0.782-2.021-0.811-2.768-0.064-0.746 0.747-0.716 1.987 0.064 2.768 0.782 0.781 2.021 0.811 2.768 0.064 0.746-0.747 0.718-1.986-0.064-2.768" style="fill:#fff"></path></g><g id="g834" transform="translate(542.08 317.02)"><path id="path836" d="m0 0c-0.782-0.782-2.05-0.782-2.832 0s-0.782 2.049 0 2.831c0.783 0.783 2.05 0.783 2.831 1e-3 0.783-0.783 0.783-2.05 1e-3 -2.832" style="fill:#fff"></path></g><g id="g838" transform="translate(510.79 285.77)"><path id="path840" d="m0 0c-0.782-0.782-2.049-0.782-2.832 0-0.782 0.782-0.781 2.049 1e-3 2.831 0.782 0.783 2.049 0.783 2.831 1e-3 0.782-0.783 0.782-2.05 0-2.832" style="fill:#fff"></path></g><g id="g842" transform="translate(206.93 162.43)"><path id="path844" d="m0 0c-0.781-0.782-2.049-0.782-2.832 0-0.782 0.782-0.781 2.049 1e-3 2.831s2.049 0.782 2.831 1e-3c0.782-0.782 0.782-2.05 0-2.832" style="fill:#fff"></path></g><g id="g846" transform="translate(238.44 194.03)"><path id="path848" d="m0 0c-0.782-0.782-2.049-0.782-2.832 0-0.782 0.782-0.781 2.049 1e-3 2.831 0.782 0.783 2.049 0.783 2.831 1e-3 0.782-0.783 0.782-2.05 0-2.832" style="fill:#fff"></path></g><g id="g850" transform="translate(268.96 224.4)"><path id="path852" d="m0 0c-0.782-0.782-2.049-0.782-2.832 1e-3 -0.782 0.781-0.781 2.049 1e-3 2.831s2.049 0.782 2.831 1e-3c0.782-0.783 0.782-2.051 0-2.833" style="fill:#fff"></path></g><g id="g854" transform="translate(300.26 255.8)"><path id="path856" d="m0 0c-0.782-0.781-2.049-0.781-2.832 1e-3 -0.782 0.781-0.781 2.049 1e-3 2.831s2.049 0.782 2.831 1e-3c0.782-0.783 0.782-2.051 0-2.833" style="fill:#fff"></path></g><g id="g858" transform="translate(331.27 286.89)"><path id="path860" d="m0 0c-0.782-0.781-2.049-0.781-2.832 1e-3 -0.782 0.781-0.781 2.049 1e-3 2.83 0.782 0.783 2.049 0.783 2.831 1e-3 0.782-0.781 0.782-2.05 0-2.832" style="fill:#fff"></path></g><g id="g862" transform="translate(361.82 317.41)"><path id="path864" d="m0 0c-0.782-0.782-2.049-0.782-2.832 1e-3 -0.782 0.781-0.781 2.049 1e-3 2.831s2.049 0.782 2.831 1e-3c0.782-0.783 0.782-2.051 0-2.833" style="fill:#fff"></path></g><g id="g866" transform="translate(392.32 347.9)"><path id="path868" d="m0 0c-0.782-0.782-2.049-0.782-2.832 1e-3 -0.782 0.78-0.781 2.049 1e-3 2.831 0.782 0.781 2.049 0.781 2.831 1e-3 0.782-0.783 0.782-2.052 0-2.833" style="fill:#fff"></path></g><g id="g870" transform="translate(423.99 379.63)"><path id="path872" d="m0 0c-0.781-0.782-2.049-0.782-2.832 0-0.782 0.782-0.781 2.049 1e-3 2.831 0.782 0.783 2.049 0.783 2.831 1e-3s0.782-2.05 0-2.832" style="fill:#fff"></path></g><g id="g874" transform="translate(788.09 292.76)"><path id="path876" d="m0 0c-0.782-0.782-2.05-0.782-2.832 0-0.782 0.781-0.781 2.049 1e-3 2.831 0.781 0.782 2.049 0.782 2.831 1e-3 0.781-0.783 0.781-2.051 0-2.832" style="fill:#fff"></path></g><g id="g878" transform="translate(823.97 328.53)"><path id="path880" d="m0 0c-0.781-0.782-2.05-0.782-2.832 0-0.781 0.782-0.781 2.049 0 2.831 0.783 0.783 2.051 0.783 2.832 1e-3 0.782-0.783 0.782-2.05 0-2.832" style="fill:#fff"></path></g><g id="g882" transform="translate(750.63 255.41)"><path id="path884" d="m0 0c-0.789-0.774-2.057-0.761-2.831 0.027-0.774 0.789-0.761 2.058 0.028 2.831 0.789 0.775 2.057 0.763 2.831-0.026 0.774-0.79 0.762-2.058-0.028-2.832" style="fill:#fff"></path></g><g id="g886" transform="translate(689.67 194.29)"><path id="path888" d="m0 0c-0.782-0.782-2.051-0.782-2.833 0-0.781 0.782-0.781 2.049 1e-3 2.831 0.782 0.783 2.049 0.783 2.831 1e-3s0.782-2.05 1e-3 -2.832" style="fill:#fff"></path></g><g id="g890" transform="translate(720.69 225.31)"><path id="path892" d="m0 0c-0.782-0.781-2.05-0.781-2.832 1e-3 -0.782 0.781-0.781 2.05 1e-3 2.831 0.781 0.782 2.049 0.782 2.831 0 0.781-0.781 0.781-2.05 0-2.832" style="fill:#fff"></path></g><g id="g894" transform="translate(658.71 163.42)"><path id="path896" d="m0 0c-0.782-0.782-2.051-0.782-2.832 1e-3 -0.782 0.781-0.781 2.049 0 2.831 0.783 0.782 2.05 0.782 2.832 1e-3 0.781-0.783 0.781-2.051 0-2.833" style="fill:#fff"></path></g><g id="g898" transform="translate(627.21 132.01)"><path id="path900" d="m0 0c-0.781-0.782-2.05-0.782-2.832 1e-3 -0.781 0.781-0.781 2.049 0 2.831 0.783 0.782 2.051 0.782 2.831 1e-3 0.783-0.783 0.783-2.051 1e-3 -2.833" style="fill:#fff"></path></g><g id="g902" transform="translate(596.08 100.88)"><path id="path904" d="m0 0c-0.782-0.781-2.05-0.781-2.833 1e-3 -0.781 0.781-0.781 2.05 0 2.831 0.784 0.782 2.051 0.782 2.832 1e-3 0.782-0.782 0.782-2.051 1e-3 -2.833" style="fill:#fff"></path></g><g id="g906" transform="translate(967.27 720.1)"><path id="path908" d="m0 0c-0.782-0.782-2.05-0.782-2.832 0s-0.781 2.049 1e-3 2.831c0.781 0.783 2.049 0.783 2.831 1e-3 0.781-0.782 0.781-2.05 0-2.832" style="fill:#fff"></path></g><g id="g910" transform="translate(714.2 571.5)"><path id="path912" d="m0 0c0-1.105-0.896-2.002-2.002-2.002-1.105 0-2.001 0.897-2.001 2.002 0 1.106 0.896 2.003 2.001 2.003 1.106 0 2.002-0.897 2.002-2.003" style="fill:#fff"></path></g><g id="g914" transform="translate(517.69 590.47)"><path id="path916" d="m0 0c0-1.105-0.896-2.002-2.002-2.002s-2.001 0.897-2.001 2.002c0 1.106 0.895 2.002 2.001 2.002s2.002-0.896 2.002-2.002" style="fill:#fff"></path></g><g id="g918" transform="translate(477.39 590.47)"><path id="path920" d="m0 0c0-1.105-0.897-2.002-2.003-2.002-1.105 0-2.001 0.897-2.001 2.002 0 1.106 0.896 2.002 2.001 2.002 1.106 0 2.003-0.896 2.003-2.002" style="fill:#fff"></path></g><g id="g922" transform="translate(437.09 590.49)"><path id="path924" d="m0 0c0-1.105-0.897-2.002-2.003-2.002-1.105 0-2.001 0.897-2.001 2.002 0 1.106 0.896 2.002 2.001 2.002 1.106 0 2.003-0.896 2.003-2.002" style="fill:#fff"></path></g><g id="g926" transform="translate(356.5 590.46)"><path id="path928" d="m0 0c0-1.105-0.897-2.002-2.003-2.002-1.105 0-2.001 0.897-2.001 2.002 0 1.106 0.896 2.002 2.001 2.002 1.106 0 2.003-0.896 2.003-2.002" style="fill:#fff"></path></g><g id="g930" transform="translate(316.2 590.48)"><path id="path932" d="m0 0c0-1.105-0.897-2.002-2.003-2.002-1.105 0-2.001 0.897-2.001 2.002 0 1.106 0.896 2.002 2.001 2.002 1.106 0 2.003-0.896 2.003-2.002" style="fill:#fff"></path></g><g id="g934" transform="translate(275.9 590.44)"><path id="path936" d="m0 0c0-1.105-0.897-2.002-2.003-2.002-1.105 0-2.001 0.897-2.001 2.002 0 1.106 0.896 2.002 2.001 2.002 1.106 0 2.003-0.896 2.003-2.002" style="fill:#fff"></path></g><g id="g938" transform="translate(235.6 590.46)"><path id="path940" d="m0 0c0-1.105-0.897-2.002-2.003-2.002-1.105 0-2.001 0.897-2.001 2.002 0 1.106 0.896 2.002 2.001 2.002 1.106 0 2.003-0.896 2.003-2.002" style="fill:#fff"></path></g><g id="g942" transform="translate(195.3 590.46)"><path id="path944" d="m0 0c0-1.105-0.897-2.002-2.003-2.002-1.105 0-2 0.897-2 2.002 0 1.106 0.895 2.002 2 2.002 1.106 0 2.003-0.896 2.003-2.002" style="fill:#fff"></path></g><g id="g946" transform="translate(155 590.48)"><path id="path948" d="m0 0c0-1.105-0.897-2.002-2.003-2.002-1.105 0-2.001 0.897-2.001 2.002 0 1.106 0.896 2.002 2.001 2.002 1.106 0 2.003-0.896 2.003-2.002" style="fill:#fff"></path></g><g id="g950" transform="translate(114.7 590.47)"><path id="path952" d="m0 0c0-1.105-0.897-2.002-2.003-2.002-1.105 0-2.001 0.897-2.001 2.002 0 1.106 0.896 2.002 2.001 2.002 1.106 0 2.003-0.896 2.003-2.002" style="fill:#fff"></path></g><g id="g954" transform="translate(881.51 529.92)"><path id="path956" d="m0 0h11.729c2.704 0 4.889 2.111 4.889 4.71 0 2.6-2.185 4.706-4.889 4.706h-11.729c-2.697 0-4.885-2.106-4.885-4.706 0-2.599 2.188-4.71 4.885-4.71" style="fill:#fff"></path></g><g id="g958" transform="translate(881.51 529.92)"><path id="path960" d="m0 0h11.729c2.704 0 4.889 2.111 4.889 4.71 0 2.6-2.185 4.706-4.889 4.706h-11.729c-2.697 0-4.885-2.106-4.885-4.706 0-2.599 2.188-4.71 4.885-4.71z" style="fill:none;stroke-width:1.322;stroke:#000"></path></g><g id="g962" transform="translate(881.39 499.14)"><path id="path964" d="m0 0h11.73c2.704 0 4.888 2.111 4.888 4.711 0 2.599-2.184 4.706-4.888 4.706h-11.73c-2.697 0-4.884-2.107-4.884-4.706 0-2.6 2.187-4.711 4.884-4.711" style="fill:#fff"></path></g><g id="g966" transform="translate(881.39 499.14)"><path id="path968" d="m0 0h11.73c2.704 0 4.888 2.111 4.888 4.711 0 2.599-2.184 4.706-4.888 4.706h-11.73c-2.697 0-4.884-2.107-4.884-4.706 0-2.6 2.187-4.711 4.884-4.711z" style="fill:none;stroke-width:1.322;stroke:#000"></path></g><g id="g970" transform="translate(661.67 585.83)"><path id="path972" d="m0 0h11.729c2.704 0 4.888 2.11 4.888 4.71 0 2.599-2.184 4.706-4.888 4.706h-11.729c-2.697 0-4.885-2.107-4.885-4.706 0-2.6 2.188-4.71 4.885-4.71" style="fill:#fff"></path></g><g id="g974" transform="translate(661.67 585.83)"><path id="path976" d="m0 0h11.729c2.704 0 4.888 2.11 4.888 4.71 0 2.599-2.184 4.706-4.888 4.706h-11.729c-2.697 0-4.885-2.107-4.885-4.706 0-2.6 2.188-4.71 4.885-4.71z" style="fill:none;stroke-width:1.322;stroke:#000"></path></g><g id="g978" transform="translate(1057.9 204.8)"><path id="path980" d="m0 0-159.5 159.5c-3.721 3.722-5.812 8.768-5.812 14.03v36.845" style="fill:none;stroke-width:7.778;stroke:#04a64a"></path></g><g id="g982" transform="translate(895.61 892.91)"><path id="path984" d="m0 0h-26.589c-1.425 0-2.579 1.155-2.579 2.579v14.684c0 1.425 1.154 2.58 2.579 2.58h26.589c1.425 0 2.579-1.155 2.579-2.58v-14.684c0-1.424-1.154-2.579-2.579-2.579" style="fill:#db0812"></path></g><g id="g986" transform="translate(874.78 897.13)"><path id="path988" d="m0 0v1.738h2.174v7.761l-2.416-1.61v2.028l2.479 1.9h2.11v-10.079h1.851v-1.738z" style="fill:#fff"></path></g><g id="g990" transform="translate(887 907.06)"><path id="path992" d="m0 0-3.188-5.426h3.188zm2.174-7.148v-2.785h-2.174v2.785h-5.072v1.883l4.218 7.149h3.028v-7.31h1.319v-1.722z" style="fill:#fff"></path></g><g id="g994" transform="translate(260.47 892.91)"><path id="path996" d="m0 0h-26.589c-1.425 0-2.579 1.155-2.579 2.579v14.684c0 1.425 1.154 2.58 2.579 2.58h26.589c1.425 0 2.58-1.155 2.58-2.58v-14.684c0-1.424-1.155-2.579-2.58-2.579" style="fill:#008dd0"></path></g><g id="g998" transform="translate(239.82 897.13)"><path id="path1000" d="m0 0v1.738h2.173v7.761l-2.414-1.61v2.028l2.479 1.9h2.109v-10.079h1.852v-1.738z" style="fill:#fff"></path></g><g id="g1002" transform="translate(250.75 907.33)"><path id="path1004" d="m0 0c-1.787 0-1.803-2.028-1.803-4.251 0-2.334 0.016-4.347 1.803-4.347s1.836 1.917 1.836 4.267c0 2.399-0.033 4.331-1.836 4.331m0.033-10.336c-3.688 0-4.123 3.285-4.123 6.07s0.468 6.005 4.123 6.005c3.654 0 4.088-3.301 4.088-6.022 0-2.736-0.434-6.053-4.088-6.053" style="fill:#fff"></path></g><g id="g1006" transform="translate(1005.8 561.62)"><path id="path1008" d="m0 0h-26.59c-1.425 0-2.58 1.155-2.58 2.579v14.684c0 1.425 1.155 2.58 2.58 2.58h26.59c1.424 0 2.578-1.155 2.578-2.58v-14.684c0-1.424-1.154-2.579-2.578-2.579" style="fill:#008dd0"></path></g><g id="g1010" transform="translate(985.1 565.83)"><path id="path1012" d="m0 0v1.738h2.174v7.761l-2.416-1.61v2.028l2.48 1.9h2.11v-10.079h1.851v-1.738z" style="fill:#fff"></path></g><g id="g1014" transform="translate(996.03 576.04)"><path id="path1016" d="m0 0c-1.787 0-1.804-2.028-1.804-4.251 0-2.334 0.017-4.347 1.804-4.347 1.786 0 1.835 1.917 1.835 4.267 0 2.399-0.032 4.331-1.835 4.331m0.032-10.336c-3.687 0-4.122 3.285-4.122 6.07s0.467 6.005 4.122 6.005 4.089-3.301 4.089-6.021c0-2.737-0.434-6.054-4.089-6.054" style="fill:#fff"></path></g><g id="g1018" transform="translate(482.58 892.53)"><path id="path1020" d="m0 0h-26.589c-1.425 0-2.579 1.155-2.579 2.579v14.684c0 1.425 1.154 2.58 2.579 2.58h26.589c1.425 0 2.579-1.155 2.579-2.58v-14.684c0-1.424-1.154-2.579-2.579-2.579" style="fill:#008dd0"></path></g><g id="g1022" transform="translate(462.63 896.74)"><path id="path1024" d="m0 0v1.739h2.173v7.76l-2.415-1.61v2.028l2.48 1.9h2.109v-10.078h1.851v-1.739z" style="fill:#fff"></path></g><g id="g1026" transform="translate(470.33 896.74)"><path id="path1028" d="m0 0v1.739h2.173v7.76l-2.415-1.61v2.028l2.48 1.9h2.109v-10.078h1.851v-1.739z" style="fill:#fff"></path></g><g id="g1030" transform="translate(1041.4 561.62)"><path id="path1032" d="m0 0h-26.59c-1.425 0-2.579 1.155-2.579 2.579v14.684c0 1.425 1.154 2.58 2.579 2.58h26.59c1.424 0 2.578-1.155 2.578-2.58v-14.684c0-1.424-1.154-2.579-2.578-2.579" style="fill:#008dd0"></path></g><g id="g1034" transform="translate(1021.4 565.83)"><path id="path1036" d="m0 0v1.738h2.174v7.761l-2.415-1.61v2.028l2.479 1.9h2.109v-10.079h1.852v-1.738z" style="fill:#fff"></path></g><g id="g1038" transform="translate(1029.1 565.83)"><path id="path1040" d="m0 0v1.738h2.175v7.761l-2.416-1.61v2.028l2.479 1.9h2.11v-10.079h1.851v-1.738z" style="fill:#fff"></path></g><g id="g1042" transform="translate(408.65 591.94)"><path id="path1044" d="m0 0h-27.623c-1.481 0-2.68 1.199-2.68 2.679v15.255c0 1.48 1.199 2.68 2.68 2.68h27.623c1.479 0 2.68-1.2 2.68-2.68v-15.255c0-1.48-1.201-2.679-2.68-2.679" style="fill:#04a64a"></path></g><g id="g1046" transform="translate(387.55 596.31)"><path id="path1048" d="m0 0v1.807h2.258v8.061l-2.509-1.672v2.107l2.576 1.974h2.191v-10.47h1.923v-1.807z" style="fill:#fff"></path></g><g id="g1050" transform="translate(398.41 596.31)"><path id="path1052" d="m0 0h-2.425c0.97 3.429 2.944 7.343 4.6 10.32h-5.788v1.957h8.129v-1.472c-1.706-3.562-3.713-7.761-4.516-10.805" style="fill:#fff"></path></g><g id="g1054" transform="translate(569.72 591.94)"><path id="path1056" d="m0 0h-27.624c-1.479 0-2.679 1.199-2.679 2.679v15.255c0 1.48 1.2 2.68 2.679 2.68h27.624c1.479 0 2.679-1.2 2.679-2.68v-15.255c0-1.48-1.2-2.679-2.679-2.679" style="fill:#04a64a"></path></g><g id="g1058" transform="translate(547.96 596.31)"><path id="path1060" d="m0 0v1.807h2.258v8.061l-2.509-1.673v2.108l2.576 1.974h2.191v-10.47h1.923v-1.807z" style="fill:#fff"></path></g><g id="g1062" transform="translate(559.96 606.97)"><path id="path1064" d="m0 0c-1.154 0-1.606-0.837-1.606-1.522 0-0.937 0.837-1.489 1.606-1.823 0.719 0.317 1.639 0.802 1.639 1.823 0 0.836-0.602 1.522-1.639 1.522m0-5.018c-1.154-0.335-1.924-1.104-1.924-2.158 0-1.438 0.953-1.856 1.907-1.856 0.92 0 1.974 0.334 1.974 1.84 0 1.053-0.787 1.89-1.957 2.174m0-5.771c-3.346 0-4.282 2.075-4.282 3.446 0 1.723 0.92 2.676 2.408 3.178-1.054 0.418-2.073 1.405-2.073 2.844 0 2.073 1.705 3.077 3.963 3.077 2.325 0 3.964-1.054 3.964-3.077 0-1.422-0.97-2.392-2.074-2.844 1.522-0.502 2.409-1.505 2.409-3.178 0-1.806-1.372-3.446-4.315-3.446" style="fill:#fff"></path></g><g id="g1066" transform="translate(85.766 580.14)"><path id="path1068" d="m0 0h-27.624c-1.479 0-2.679 1.199-2.679 2.679v15.255c0 1.48 1.2 2.68 2.679 2.68h27.624c1.48 0 2.679-1.2 2.679-2.68v-15.255c0-1.48-1.199-2.679-2.679-2.679" style="fill:#04a64a"></path></g><g id="g1070" transform="translate(64.321 584.52)"><path id="path1072" d="m0 0v1.807h2.258v8.061l-2.509-1.672v2.107l2.576 1.974h2.191v-10.47h1.923v-1.807z" style="fill:#fff"></path></g><g id="g1074" transform="translate(75.745 595.17)"><path id="path1076" d="m0 0c-1.605 0-1.84-1.372-1.84-2.291 0-1.105 0.619-1.991 1.807-1.991 1.572 0 1.739 1.456 1.739 2.191 0 1.087-0.469 2.091-1.706 2.091m0.184-10.655h-2.827c1.406 1.289 3.111 3.212 4.115 5.235-0.619-0.451-1.456-0.618-1.957-0.618-1.924 0-3.73 1.255-3.73 3.763 0 0.887 0.418 4.031 4.182 4.031 2.793 0 4.214-1.873 4.214-4.666 0-3.112-2.425-6.122-3.997-7.745" style="fill:#fff"></path></g><g id="g1078" transform="translate(583.88 57.383)"><path id="path1080" d="m0 0h-27.624c-1.479 0-2.679 1.2-2.679 2.68v15.256c0 1.478 1.2 2.678 2.679 2.678h27.624c1.48 0 2.679-1.2 2.679-2.678v-15.256c0-1.48-1.199-2.68-2.679-2.68" style="fill:#04a64a"></path></g><g id="g1082" transform="translate(562.44 61.76)"><path id="path1084" d="m0 0v1.808h2.258v8.06l-2.508-1.673v2.108l2.575 1.974h2.191v-10.469h1.923v-1.808z" style="fill:#fff"></path></g><g id="g1086" transform="translate(573.86 72.415)"><path id="path1088" d="m0 0c-1.605 0-1.839-1.372-1.839-2.291 0-1.105 0.619-1.991 1.806-1.991 1.572 0 1.739 1.455 1.739 2.191 0 1.087-0.468 2.091-1.706 2.091m0.184-10.655h-2.826c1.404 1.288 3.111 3.212 4.114 5.235-0.619-0.451-1.456-0.619-1.957-0.619-1.924 0-3.73 1.256-3.73 3.764 0 0.886 0.418 4.031 4.182 4.031 2.793 0 4.214-1.873 4.214-4.666 0-3.112-2.425-6.122-3.997-7.745" style="fill:#fff"></path></g><g id="g1090" transform="translate(1011.8 753.62)"><path id="path1092" d="m0 0h-27.624c-1.479 0-2.679 1.199-2.679 2.68v15.255c0 1.479 1.2 2.679 2.679 2.679h27.624c1.48 0 2.68-1.2 2.68-2.679v-15.255c0-1.481-1.2-2.68-2.68-2.68" style="fill:#db0812"></path></g><g id="g1094" transform="translate(990.18 758)"><path id="path1096" d="m0 0v1.806h2.26v8.062l-2.511-1.673v2.108l2.579 1.973h2.193v-10.47h1.925v-1.806z" style="fill:#fff"></path></g><g id="g1098" transform="translate(1002 757.86)"><path id="path1100" d="m0 0c-2.01 0-3.516 0.769-4.321 1.505l1.223 1.606c0.921-0.786 1.758-1.188 2.897-1.188 1.306 0 2.01 0.77 2.01 1.69 0 1.221-0.972 1.923-2.83 1.923h-0.921v1.857h0.418c2.144 0 3.182 0.568 3.182 1.772 0 1.004-0.736 1.556-1.859 1.556-0.903 0-1.775-0.335-2.663-1.121l-1.156 1.472c0.989 0.87 2.212 1.472 4.204 1.472 1.809 0 3.801-0.852 3.801-3.161 0-1.589-1.121-2.425-2.445-2.81 1.508-0.285 2.613-1.322 2.613-2.977 0-2.208-1.59-3.596-4.153-3.596" style="fill:#fff"></path></g><g id="g1102" transform="translate(133.02 57.383)"><path id="path1104" d="m0 0h-27.623c-1.48 0-2.68 1.2-2.68 2.68v15.256c0 1.478 1.2 2.678 2.68 2.678h27.623c1.48 0 2.679-1.2 2.679-2.678v-15.256c0-1.48-1.199-2.68-2.679-2.68" style="fill:#db0812"></path></g><g id="g1106" transform="translate(111.45 61.76)"><path id="path1108" d="m0 0v1.808h2.261v8.06l-2.512-1.673v2.108l2.579 1.974h2.193v-10.469h1.927v-1.808z" style="fill:#fff"></path></g><g id="g1110" transform="translate(123.22 61.626)"><path id="path1112" d="m0 0c-2.01 0-3.516 0.77-4.321 1.506l1.223 1.605c0.921-0.786 1.758-1.187 2.897-1.187 1.306 0 2.009 0.769 2.009 1.69 0 1.22-0.97 1.922-2.829 1.922h-0.922v1.858h0.419c2.143 0 3.181 0.567 3.181 1.772 0 1.003-0.736 1.556-1.858 1.556-0.904 0-1.775-0.336-2.663-1.12l-1.155 1.47c0.988 0.87 2.21 1.473 4.203 1.473 1.809 0 3.802-0.853 3.802-3.162 0-1.589-1.122-2.425-2.445-2.81 1.506-0.284 2.612-1.321 2.612-2.976 0-2.208-1.591-3.597-4.153-3.597" style="fill:#fff"></path></g><g id="g1114" transform="translate(499.05 244.96)"><path id="path1116" d="m0 0h-26.589c-1.425 0-2.579 1.155-2.579 2.58v14.684c0 1.424 1.154 2.579 2.579 2.579h26.589c1.425 0 2.58-1.155 2.58-2.579v-14.684c0-1.425-1.155-2.58-2.58-2.58" style="fill:#db0812"></path></g><g id="g1118" transform="translate(478.22 249.17)"><path id="path1120" d="m0 0v1.737h2.173v7.762l-2.415-1.61v2.028l2.48 1.899h2.109v-10.079h1.851v-1.737z" style="fill:#fff"></path></g><g id="g1122" transform="translate(490.44 259.1)"><path id="path1124" d="m0 0-3.188-5.426h3.188zm2.173-7.147v-2.786h-2.173v2.786h-5.072v1.882l4.219 7.15h3.026v-7.311h1.321v-1.721z" style="fill:#fff"></path></g><g id="g1126" transform="translate(906.42 57.383)"><path id="path1128" d="m0 0h-27.623c-1.48 0-2.679 1.2-2.679 2.68v15.256c0 1.478 1.199 2.678 2.679 2.678h27.623c1.48 0 2.681-1.2 2.681-2.678v-15.256c0-1.48-1.201-2.68-2.681-2.68" style="fill:#04a64a"></path></g><g id="g1130" transform="translate(884.66 61.76)"><path id="path1132" d="m0 0v1.806h2.258v8.062l-2.508-1.673v2.108l2.575 1.973h2.191v-10.47h1.923v-1.806z" style="fill:#fff"></path></g><g id="g1134" transform="translate(896.66 72.414)"><path id="path1136" d="m0 0c-1.152 0-1.604-0.836-1.604-1.521 0-0.938 0.835-1.489 1.604-1.824 0.72 0.318 1.64 0.802 1.64 1.824 0 0.835-0.603 1.521-1.64 1.521m0-5.017c-1.152-0.336-1.923-1.104-1.923-2.158 0-1.438 0.953-1.857 1.907-1.857 0.919 0 1.974 0.335 1.974 1.841 0 1.053-0.787 1.89-1.958 2.174m0-5.771c-3.345 0-4.281 2.075-4.281 3.446 0 1.722 0.92 2.676 2.408 3.178-1.055 0.418-2.073 1.404-2.073 2.843 0 2.074 1.705 3.078 3.963 3.078 2.326 0 3.964-1.055 3.964-3.078 0-1.421-0.969-2.391-2.075-2.843 1.523-0.502 2.409-1.506 2.409-3.178 0-1.807-1.371-3.446-4.315-3.446" style="fill:#fff"></path></g><g id="g1138" transform="translate(914.69 347.97)"><path id="path1140" d="m0 0c-0.782-0.782-2.049-0.782-2.832 0-0.782 0.782-0.781 2.049 1e-3 2.831 0.782 0.783 2.049 0.783 2.831 1e-3 0.782-0.783 0.782-2.05 0-2.832" style="fill:#fff"></path></g><g id="g1142" transform="translate(894.01 378.41)"><path id="path1144" d="m0 0c-0.782-0.782-2.05-0.782-2.832 1e-3 -0.782 0.781-0.781 2.049 0 2.83 0.783 0.783 2.05 0.783 2.832 1e-3s0.782-2.05 0-2.832" style="fill:#fff"></path></g><g id="g1146" transform="translate(893.99 409.42)"><path id="path1148" d="m0 0c-0.782-0.781-2.049-0.781-2.832 1e-3 -0.782 0.781-0.781 2.05 1e-3 2.831 0.782 0.782 2.049 0.782 2.831 1e-3 0.782-0.782 0.782-2.051 0-2.833" style="fill:#fff"></path></g><g id="g1150" transform="translate(945.33 317.4)"><path id="path1152" d="m0 0c-0.782-0.781-2.05-0.781-2.832 0-0.782 0.782-0.782 2.05 0 2.831 0.783 0.783 2.05 0.783 2.832 1e-3s0.782-2.05 0-2.832" style="fill:#fff"></path></g><g id="g1154" transform="translate(975.92 286.81)"><path id="path1156" d="m0 0c-0.78-0.782-2.049-0.782-2.832 1e-3 -0.782 0.78-0.78 2.049 1e-3 2.831 0.782 0.781 2.049 0.781 2.831 1e-3 0.782-0.783 0.782-2.052 0-2.833" style="fill:#fff"></path></g><g id="g1158" transform="translate(1007.3 255.44)"><path id="path1160" d="m0 0c-0.782-0.782-2.05-0.782-2.832 0-0.782 0.781-0.781 2.049 0 2.831 0.783 0.782 2.05 0.782 2.832 1e-3 0.782-0.782 0.782-2.051 0-2.832" style="fill:#fff"></path></g><g id="g1162" transform="translate(1059 197.18)"><path id="path1164" d="m0 0h-27.623c-1.481 0-2.681 1.199-2.681 2.679v15.255c0 1.48 1.2 2.68 2.681 2.68h27.623c1.479 0 2.679-1.2 2.679-2.68v-15.255c0-1.48-1.2-2.679-2.679-2.679" style="fill:#04a64a"></path></g><g id="g1166" transform="translate(1037.9 201.55)"><path id="path1168" d="m0 0v1.807h2.258v8.061l-2.508-1.673v2.109l2.574 1.972h2.192v-10.469h1.922v-1.807z" style="fill:#fff"></path></g><g id="g1170" transform="translate(1048.8 201.55)"><path id="path1172" d="m0 0h-2.426c0.971 3.429 2.944 7.343 4.6 10.32h-5.788v1.956h8.13v-1.47c-1.707-3.563-3.713-7.761-4.516-10.806" style="fill:#fff"></path></g><g id="g1174" transform="translate(557.99 590.49)"><path id="path1176" d="m0 0c0-1.105-0.896-2.002-2.002-2.002-1.105 0-2.001 0.897-2.001 2.002 0 1.106 0.896 2.002 2.001 2.002 1.106 0 2.002-0.896 2.002-2.002" style="fill:#fff"></path></g><g id="g1178" transform="translate(396.79 590.48)"><path id="path1180" d="m0 0c0-1.105-0.897-2.002-2.003-2.002-1.105 0-2.001 0.897-2.001 2.002 0 1.106 0.896 2.002 2.001 2.002 1.106 0 2.003-0.896 2.003-2.002" style="fill:#fff"></path></g><g id="g1182" transform="translate(896.48 564.82)"><path id="path1184" d="m0 0h-18.552c-3.636 0-6.614 2.977-6.614 6.614 0 3.638 2.978 6.614 6.614 6.614h18.552c3.638 0 6.614-2.976 6.614-6.614 0-3.637-2.976-6.614-6.614-6.614" style="fill:#fff"></path></g><g id="g1186" transform="translate(896.48 564.82)"><path id="path1188" d="m0 0h-18.552c-3.636 0-6.614 2.977-6.614 6.614 0 3.638 2.978 6.614 6.614 6.614h18.552c3.638 0 6.614-2.976 6.614-6.614 0-3.637-2.976-6.614-6.614-6.614z" style="fill:none;stroke-width:1.322;stroke:#000"></path></g></g></g><g id="g11786"><text id="text9915" class="end-station name-hjulsta" transform="scale(1,-1)" x="270.94669" y="-897.76385" style="" xml:space="preserve"><tspan id="tspan9913" x="270.94669" y="-897.76385" style="">HJULSTA</tspan></text>

<text id="text9915-3" transform="scale(1,-1)" x="282.83237" y="-866.39874" style="" xml:space="preserve" class="name-tensta"><tspan id="tspan9913-5" x="282.83237" y="-866.39874" style="">Tensta</tspan></text>
<text id="text9915-3-5" transform="scale(1,-1)" x="347.10318" y="-804.73883" style="" xml:space="preserve" class="name-rissne"><tspan id="tspan9913-5-6" x="347.10318" y="-804.73883" style="">Rissne</tspan></text>
<text id="text9915-3-5-1" transform="scale(1,-1)" x="377.38843" y="-773.67908" style="" xml:space="preserve" class="name-duvbo"><tspan id="tspan9913-5-6-1" x="377.38843" y="-773.67908" style="">Duvbo</tspan></text>
<text id="text9915-3-5-15" transform="scale(1,-1)" x="410.66751" y="-740.17761" style="" xml:space="preserve" class="name-sundbybergs-centrum"><tspan id="tspan9913-5-6-0" x="410.66751" y="-740.17761" style="">Sundbybergs centrum</tspan></text>
<text id="text9915-3-5-8" transform="scale(1,-1)" x="447.74258" y="-706.7879" style="" xml:space="preserve" class="name-solna-strand"><tspan id="tspan9913-5-6-01" x="447.74258" y="-706.7879" style="">Solna strand</tspan></text>
<text id="text9915-3-5-0" transform="scale(1,-1)" x="559.4483" y="-706.91663" style="" xml:space="preserve" class="name-huvudsta"><tspan id="tspan9913-5-6-08" x="559.4483" y="-706.91663" style="">Huvudsta</tspan></text>
<text id="text9915-4" class="end-station name-akalla" transform="scale(1,-1)" x="493.78235" y="-897.80719" style="" xml:space="preserve"><tspan id="tspan9913-3" x="493.78235" y="-897.80719" style="">AKALLA</tspan></text>
<text id="text9915-3-2" transform="scale(1,-1)" x="507.09787" y="-866.58453" style="" xml:space="preserve" class="name-husby"><tspan id="tspan9913-5-2" x="507.09787" y="-866.58453" style="">Husby</tspan></text>
<text id="text9915-3-2-7" transform="scale(1,-1)" x="538.80908" y="-835.82056" style="" xml:space="preserve" class="name-kista"><tspan id="tspan9913-5-2-7" x="538.80908" y="-835.82056" style="">Kista</tspan></text>
<text id="text9915-3-2-2" transform="scale(1,-1)" x="569.09479" y="-805.13525" style="" xml:space="preserve" class="name-hallonbergen"><tspan id="tspan9913-5-2-0" x="569.09479" y="-805.13525" style="">Hallonbergen</tspan></text>
<text id="text9915-3-2-4" transform="scale(1,-1)" x="600.02283" y="-774.00348" style="" xml:space="preserve" class="name-nckrosen"><tspan id="tspan9913-5-2-8" x="600.02283" y="-774.00348" style="">Nckrosen</tspan></text>
<text id="text9915-3-2-25" transform="scale(1,-1)" x="632.81921" y="-739.96637" style="" xml:space="preserve" class="name-solna-centrum"><tspan id="tspan9913-5-2-3" x="632.81921" y="-739.96637" style="">Solna centrum</tspan></text>
<text id="text9915-3-2-24" transform="scale(1,-1)" x="673.5603" y="-683.66766" style="" xml:space="preserve" class="name-vstra-skogen"><tspan id="tspan9913-5-2-6" x="673.5603" y="-683.66766" style="">Vstra skogen</tspan></text>
<text id="text9915-3-2-43" class="align-right name-stadshagen" transform="scale(1,-1)" x="654.10394" y="-646.42694" style="" xml:space="preserve"><tspan id="tspan9913-5-2-5" x="654.10394" y="-646.42694" style="">Stadshagen</tspan></text>
<text id="text9915-37" class="end-station name-hsselby-strand" transform="scale(1,-1)" x="55.234436" y="-607.35596" style="" xml:space="preserve"><tspan id="tspan9913-4" x="55.234436" y="-607.35596" style="">HSSELBY STRAND</tspan></text>
<text id="text9915-3-5-15-0-9-0-6-1-2" class="slanted-bottom name-rdhuset" transform="matrix(.70711 .70711 .70711 -.70711 0 0)" x="901.88641" y="112.00389" style="" xml:space="preserve"><tspan id="tspan8983" x="901.88641" y="112.00389" style="">Rdhuset</tspan></text>
<text id="text9915-3-5-15-0-9-0-6-1-4" transform="matrix(.70711 .70711 .70711 -.70711 0 0)" x="902.28094" y="55.064991" style="" xml:space="preserve" class="name-fridhemsplan"><tspan id="tspan9913-5-6-0-9-0-6-64-1-4" x="902.28094" y="55.064991" style="">Fridhemsplan</tspan></text>
<text id="text9915-3-5-15-0-9-0-6-1-4-7" transform="matrix(.70711 .70711 .70711 -.70711 0 0)" x="927.68689" y="79.840889" style="" xml:space="preserve" class="name-s:t-eriksplan"><tspan id="tspan9913-5-6-0-9-0-6-64-1-4-0" x="927.68689" y="79.840889" style="">S:t Eriksplan</tspan></text>
<text id="text9915-3-5-15-0-9-0-6-1-4-6" transform="matrix(.70711 .70711 .70711 -.70711 0 0)" x="955.2757" y="107.30972" style="" xml:space="preserve" class="name-odenplan"><tspan id="tspan9913-5-6-0-9-0-6-64-1-4-7" x="955.2757" y="107.30972" style="">Odenplan</tspan></text>
<text id="text9915-3-5-15-0-9-0-6-1-4-0" transform="matrix(.70711 .70711 .70711 -.70711 0 0)" x="983.08344" y="135.88246" style="" xml:space="preserve" class="name-rdmansgatan"><tspan id="tspan9913-5-6-0-9-0-6-64-1-4-6" x="983.08344" y="135.88246" style="">Rdmansgatan</tspan></text>
<text id="text9915-3-5-15-0-9-0-6-1-4-2" transform="matrix(.70711 .70711 .70711 -.70711 0 0)" x="1010.1262" y="162.91005" style="" xml:space="preserve" class="name-htorget"><tspan id="tspan9913-5-6-0-9-0-6-64-1-4-5" x="1010.1262" y="162.91005" style="">Htorget</tspan></text>
<text id="text9915-4-1" class="end-station align-right name-t-centralen" transform="scale(1,-1)" x="871.60535" y="-549.6181" style="" xml:space="preserve"><tspan id="tspan9913-3-0" x="872.35535" y="-549.6181" style="">T-CENTRALEN</tspan></text>
<text id="text9915-4-7" class="end-station name-mrby-centrum" transform="scale(1,-1)" x="906.57965" y="-897.47797" style="" xml:space="preserve"><tspan id="tspan9913-3-2" x="906.57965" y="-897.47797" style="">MRBY CENTRUM</tspan></text>
<text id="text9915-3-2-4-9" transform="scale(1,-1)" x="891.69098" y="-866.80585" style="" xml:space="preserve" class="name-danderyds-sjukhus"><tspan id="tspan9913-5-2-8-8" x="891.69098" y="-866.80585" style="">Danderyds sjukhus</tspan></text>
<text id="text9915-3-2-4-3" transform="scale(1,-1)" x="891.69098" y="-832.74011" style="" xml:space="preserve" class="name-bergshamra"><tspan id="tspan9913-5-2-8-4" x="891.69098" y="-832.74011" style="">Bergshamra</tspan></text>
<text id="text9915-3-2-4-94" transform="scale(1,-1)" x="891.69098" y="-798.60675" style="" xml:space="preserve" class="name-universitetet"><tspan id="tspan9913-5-2-8-6" x="891.69098" y="-798.60675" style="">Universitetet</tspan></text>
<text id="text9915-3-2-4-32" transform="scale(1,-1)" x="892.45599" y="-765.24011" style="" xml:space="preserve" class="name-tekniskahgskolan"><tspan id="tspan9913-5-2-8-3" x="892.45599" y="-765.24011" style="">Tekniska</tspan><tspan id="tspan9123" x="892.45599" y="-748.74011" style="">hgskolan</tspan></text>
<text id="text9915-3-2-4-32-6" transform="scale(1,-1)" x="892.23102" y="-717.01068" style="" xml:space="preserve" class="name-stadion"><tspan id="tspan9123-0" x="892.23102" y="-717.01068" style="">Stadion</tspan></text>
<text id="text9915-3-2-4-32-1" transform="scale(1,-1)" x="981.33673" y="-717.01068" style="" xml:space="preserve" class="name-grdet"><tspan id="tspan9160" x="981.33673" y="-717.01068" style="">Grdet</tspan></text>
<text id="text9915-3-2-4-32-3" transform="scale(1,-1)" x="937.83673" y="-671.64404" style="" xml:space="preserve" class="name-karlaplan"><tspan id="tspan9123-4" x="937.83673" y="-671.64404" style="">Karlaplan</tspan></text>
<text id="text9915-3-2-4-32-65" transform="scale(1,-1)" x="892.36597" y="-623.64404" style="" xml:space="preserve" class="name-stermalmstorg"><tspan id="tspan9123-9" x="892.36597" y="-623.64404" style="">stermalmstorg</tspan></text>
<text id="text9915-4-7-1" class="end-station name-ropsten" transform="scale(1,-1)" x="1021.9537" y="-758.46613" style="" xml:space="preserve"><tspan id="tspan9913-3-2-0" x="1021.9537" y="-758.46613" style="">ROPSTEN</tspan></text>
<text id="text9915-4-7-14" class="end-station name-kungstrdgrden" transform="scale(1,-1)" x="976.95343" y="-587.83276" style="" xml:space="preserve"><tspan id="tspan9913-3-2-4" x="976.95343" y="-587.83276" style="">KUNGSTRDGRDEN</tspan></text>
<text id="text9915-3-2-4-32-65-3" transform="scale(1,-1)" x="902.76007" y="-529.39215" style="" xml:space="preserve" class="name-gamla-stan"><tspan id="tspan9123-9-9" x="902.76007" y="-529.39215" style="">Gamla stan</tspan></text>
<text id="text9915-3-2-4-32-65-6" transform="scale(1,-1)" x="902.62506" y="-498.35818" style="" xml:space="preserve" class="name-slussen"><tspan id="tspan9123-9-8" x="902.62506" y="-498.35818" style="">Slussen</tspan></text>
<text id="text9915-3-2-4-32-65-7" transform="scale(1,-1)" x="902.61005" y="-467.75827" style="" xml:space="preserve" class="name-medborgarplatsen"><tspan id="tspan9123-9-84" x="902.61005" y="-467.75827" style="">Medborgarplatsen</tspan></text>
<text id="text9915-3-2-4-32-65-5" transform="scale(1,-1)" x="902.62506" y="-436.62494" style="" xml:space="preserve" class="name-skanstull"><tspan id="tspan9123-9-5" x="902.62506" y="-436.62494" style="">Skanstull</tspan></text>
<text id="text9915-3-2-4-32-65-76" transform="scale(1,-1)" x="902.76007" y="-405.49161" style="" xml:space="preserve" class="name-gullmarsplan"><tspan id="tspan9123-9-4" x="902.76007" y="-405.49161" style="">Gullmarsplan</tspan></text>
<text id="text9915-3-2-4-32-65-76-0" transform="scale(1,-1)" x="902.62506" y="-375.2066" style="" xml:space="preserve" class="name-skrmarbrink"><tspan id="tspan9123-9-4-9" x="902.62506" y="-375.2066" style="">Skrmarbrink</tspan></text>
<text id="text9915-3-2-4-32-65-76-7" transform="scale(1,-1)" x="929.80536" y="-344.07327" style="" xml:space="preserve" class="name-hammarbyhjden"><tspan id="tspan9123-9-4-1" x="929.80536" y="-344.07327" style="">Hammarbyhjden</tspan></text>
<text id="text9915-3-2-4-32-65-76-4" transform="scale(1,-1)" x="960.60553" y="-313.33994" style="" xml:space="preserve" class="name-bjrkhagen"><tspan id="tspan9123-9-4-7" x="960.60553" y="-313.33994" style="">Bjrkhagen</tspan></text>
<text id="text9915-3-2-4-32-65-76-2" transform="scale(1,-1)" x="989.80536" y="-282.2066" style="" xml:space="preserve" class="name-krrtorp"><tspan id="tspan9123-9-4-94" x="989.80536" y="-282.2066" style="">Krrtorp</tspan></text>
<text id="text9915-3-5-15-0-9-0-6-1-2-9" transform="matrix(.70711 .70711 .70711 -.70711 0 0)" x="641.53918" y="45.959782" style="" xml:space="preserve" class="name-axelsberg"><tspan id="tspan8983-3" x="641.53918" y="45.959782" style="">Axelsberg</tspan></text>
<text id="text9915-3-5-15-0-9-0-6-1-2-3" transform="matrix(.70711 .70711 .70711 -.70711 0 0)" x="676.65839" y="83.698898" style="" xml:space="preserve" class="name-rnsberg"><tspan id="tspan8983-8" x="676.65839" y="83.698898" style="">rnsberg</tspan></text>
<text id="text9915-3-5-15-0-9-0-6-1-2-0" transform="matrix(.70711 .70711 .70711 -.70711 0 0)" x="715.78546" y="120.20604" style="" xml:space="preserve" class="name-aspudden"><tspan id="tspan8983-35" x="715.78546" y="120.20604" style="">Aspudden</tspan></text>
<text id="text9915-3-5-15-0-9-0-6-1-2-5" transform="matrix(.70711 .70711 .70711 -.70711 0 0)" x="752.06433" y="157.65498" style="" xml:space="preserve" class="name-liljeholmen"><tspan id="tspan8983-5" x="752.06433" y="157.65498" style="">Liljeholmen</tspan></text>
<text id="text9915-3-5-15-0-9-0-6-1-2-6" transform="matrix(.70711 .70711 .70711 -.70711 0 0)" x="788.90466" y="194.49527" style="" xml:space="preserve" class="name-hornstull"><tspan id="tspan8983-4" x="788.90466" y="194.49527" style="">Hornstull</tspan></text>
<text id="text9915-3-5-15-0-9-0-6-1-2-99" transform="matrix(.70711 .70711 .70711 -.70711 0 0)" x="826.9599" y="231.77049" style="" xml:space="preserve" class="name-zinkensdamm"><tspan id="tspan8983-55" x="826.9599" y="231.77049" style="">Zinkensdamm</tspan></text>
<text id="text9915-3-5-15-0-9-0-6-1-2-30" transform="matrix(.70711 .70711 .70711 -.70711 0 0)" x="863.69629" y="268.76187" style="" xml:space="preserve" class="name-mariatorget"><tspan id="tspan8983-9" x="863.69629" y="268.76187" style="">Mariatorget</tspan></text>
<text id="text9915-3-2-4-32-65-76-9" transform="scale(1,-1)" x="438.75067" y="-375.00961" style="" xml:space="preserve" class="name-mlarhjden"><tspan id="tspan9123-9-4-0" x="438.75067" y="-375.00961" style="">Mlarhjden</tspan></text>
<text id="text9915-3-2-4-32-65-76-8" transform="scale(1,-1)" x="406.88358" y="-343.94299" style="" xml:space="preserve" class="name-bredng"><tspan id="tspan9123-9-4-3" x="406.88358" y="-343.94299" style="">Bredng</tspan></text>
<text id="text9915-3-2-4-32-65-76-42" transform="scale(1,-1)" x="375.31924" y="-312.97815" style="" xml:space="preserve" class="name-stra"><tspan id="tspan9406" x="375.31924" y="-312.97815" style="">Stra</tspan></text>
<text id="text9915-3-2-4-32-65-76-22" transform="scale(1,-1)" x="344.25269" y="-282.44547" style="" xml:space="preserve" class="name-skrholmen"><tspan id="tspan9123-9-4-70" x="344.25269" y="-282.44547" style="">Skrholmen</tspan></text>
<text id="text9915-3-2-4-32-65-76-3" transform="scale(1,-1)" x="315.75269" y="-251.34549" style="" xml:space="preserve" class="name-vrberg"><tspan id="tspan9123-9-4-34" x="315.75269" y="-251.34549" style="">Vrberg</tspan></text>
<text id="text9915-3-2-4-32-65-76-00" transform="scale(1,-1)" x="285.15363" y="-220.44775" style="" xml:space="preserve" class="name-vrby-grd"><tspan id="tspan9123-9-4-6" x="285.15363" y="-220.44775" style="">Vrby grd</tspan></text>
<text id="text9915-3-2-4-32-65-76-85" transform="scale(1,-1)" x="253.28699" y="-190.04771" style="" xml:space="preserve" class="name-masmo"><tspan id="tspan9123-9-4-19" x="253.28699" y="-190.04771" style="">Masmo</tspan></text>
<text id="text9915-3-2-4-32-65-76-1" transform="scale(1,-1)" x="222.15364" y="-158.94775" style="" xml:space="preserve" class="name-fittja"><tspan id="tspan9123-9-4-97" x="222.15364" y="-158.94775" style="">Fittja</tspan></text>
<text id="text9915-3-2-4-32-65-76-35" transform="scale(1,-1)" x="189.32167" y="-127.94909" style="" xml:space="preserve" class="name-alby"><tspan id="tspan9123-9-4-96" x="189.32167" y="-127.94909" style="">Alby</tspan></text>
<text id="text9915-3-2-4-32-65-76-04" transform="scale(1,-1)" x="160.25562" y="-97.349258" style="" xml:space="preserve" class="name-hallunda"><tspan id="tspan9123-9-4-5" x="160.25562" y="-97.349258" style="">Hallunda</tspan></text>
<text id="text9915-4-1-9" class="end-station name-norsborg" transform="scale(1,-1)" x="144.16299" y="-62.074978" style="" xml:space="preserve"><tspan id="tspan9913-3-0-8" x="144.16299" y="-62.074978" style="">NORSBORG</tspan></text>
<text id="text9915-4-1-7" transform="scale(1,-1)" x="509.17688" y="-248.75414" style="" xml:space="preserve" class="name-frungen"><tspan id="tspan9913-3-0-89" x="509.17688" y="-248.75414" style="">FRUNGEN</tspan></text>
<text id="text9915-4-1-5" class="end-station name-hagstra" transform="scale(1,-1)" x="593.88873" y="-61.537827" style="" xml:space="preserve"><tspan id="tspan9913-3-0-1" x="593.88873" y="-61.537827" style="">HAGSTRA</tspan></text>
<text id="text9915-4-1-3" class="end-station name-farsta-strand" transform="scale(1,-1)" x="916.75256" y="-61.704269" style="" xml:space="preserve"><tspan id="tspan9913-3-0-7" x="916.75256" y="-61.704269" style="">FARSTA STRAND</tspan></text>
<text id="text9915-4-1-34" class="end-station name-skarpnck" transform="scale(1,-1)" x="1028.886" y="-179.83762" style="" xml:space="preserve"><tspan id="tspan9913-3-0-5" x="1028.886" y="-179.83762" style="">SKARPNCK</tspan></text>
<text id="text9915-3-2-4-32-65-76-9-2" transform="scale(1,-1)" x="620.11047" y="-375.17017" style="" xml:space="preserve" class="name-midsommarkransen"><tspan id="tspan9123-9-4-0-3" x="620.11047" y="-375.17017" style="">Midsommarkransen</tspan></text>
<text id="text9915-3-2-4-32-65-76-9-2-9" transform="scale(1,-1)" x="587.80823" y="-343.95844" style="" xml:space="preserve" class="name-telefonplan"><tspan id="tspan9123-9-4-0-3-3" x="587.80823" y="-343.95844" style="">Telefonplan</tspan></text>
<text id="text9915-3-2-4-32-65-76-9-2-0" transform="scale(1,-1)" x="556.67487" y="-312.8251" style="" xml:space="preserve" class="name-hgerstenssen"><tspan id="tspan9123-9-4-0-3-7" x="556.67487" y="-312.8251" style="">Hgerstenssen</tspan></text>
<text id="text9915-3-2-4-32-65-76-9-2-6" transform="scale(1,-1)" x="527.44159" y="-282.45844" style="" xml:space="preserve" class="name-vstertorp"><tspan id="tspan9123-9-4-0-3-72" x="527.44159" y="-282.45844" style="">Vstertorp</tspan></text>
<text id="text9915-3-2-4-32-65-76-9-2-1" transform="scale(1,-1)" x="1022.4995" y="-251.56071" style="" xml:space="preserve" class="name-bagarmossen"><tspan id="tspan9123-9-4-0-3-6" x="1022.4995" y="-251.56071" style="">Bagarmossen</tspan></text>
<text id="text9915-3-2-4-32-65-76-9-2-93" transform="scale(1,-1)" x="901.83539" y="-282.69406" style="" xml:space="preserve" class="name-blsut"><tspan id="tspan9123-9-4-0-3-37" x="901.83539" y="-282.69406" style="">Blsut</tspan></text>
<text id="text9915-3-2-4-32-65-76-9-2-99" transform="scale(1,-1)" x="902.3653" y="-251.32916" style="" xml:space="preserve" class="name-sandsborg"><tspan id="tspan9123-9-4-0-3-1" x="902.3653" y="-251.32916" style="">Sandsborg</tspan></text>
<text id="text9915-3-2-4-32-65-76-9-2-7" transform="scale(1,-1)" x="902.3653" y="-220.36143" style="" xml:space="preserve" class="name-skogskyrkogrden"><tspan id="tspan9123-9-4-0-3-8" x="902.3653" y="-220.36143" style="">Skogskyrkogrden</tspan></text>
<text id="text9915-3-2-4-32-65-76-9-2-7-9" transform="scale(1,-1)" x="902.58606" y="-189.65021" style="" xml:space="preserve" class="name-tallkrogen"><tspan id="tspan9123-9-4-0-3-8-5" x="902.58606" y="-189.65021" style="">Tallkrogen</tspan></text>
<text id="text9915-3-2-4-32-65-76-9-2-7-1" transform="scale(1,-1)" x="902.49774" y="-158.88351" style="" xml:space="preserve" class="name-gubbngen"><tspan id="tspan9123-9-4-0-3-8-7" x="902.49774" y="-158.88351" style="">Gubbngen</tspan></text>
<text id="text9915-3-2-4-32-65-76-9-2-7-0" transform="scale(1,-1)" x="901.83539" y="-127.78355" style="" xml:space="preserve" class="name-hkarngen"><tspan id="tspan9123-9-4-0-3-8-8" x="901.83539" y="-127.78355" style="">Hkarngen</tspan></text>
<text id="text9915-3-2-4-32-65-76-9-2-7-6" transform="scale(1,-1)" x="901.83539" y="-97.016869" style="" xml:space="preserve" class="name-farsta"><tspan id="tspan9123-9-4-0-3-8-70" x="901.83539" y="-97.016869" style="">Farsta</tspan></text>
<text id="text9915-3-2-4-32-65-76-9-2-7-8" transform="scale(1,-1)" x="835.97919" y="-324.28357" style="" xml:space="preserve" class="name-globen"><tspan id="tspan9123-9-4-0-3-8-1" x="835.97919" y="-324.28357" style="">Globen</tspan></text>
<text id="text9915-3-2-4-32-65-76-9-2-7-17" transform="scale(1,-1)" x="811.61255" y="-297.68356" style="" xml:space="preserve" class="name-enskedegrd"><tspan id="tspan9123-9-4-0-3-8-87" x="811.61255" y="-297.68356" style="">Enskede</tspan><tspan id="tspan11510" x="811.61255" y="-282.96487" style="">grd</tspan></text>
<text id="text9915-3-2-4-32-65-76-9-2-7-17-7" transform="scale(1,-1)" x="764.7298" y="-251.66515" style="" xml:space="preserve" class="name-sockenplan"><tspan id="tspan11510-2" x="764.7298" y="-251.66515" style="">Sockenplan</tspan></text>
<text id="text9915-3-2-4-32-65-76-9-2-7-17-7-1" transform="scale(1,-1)" x="734.27014" y="-220.61357" style="" xml:space="preserve" class="name-svedmyra"><tspan id="tspan11510-2-3" x="734.27014" y="-220.61357" style="">Svedmyra</tspan></text>
<text id="text9915-3-2-4-32-65-76-9-2-7-17-7-2" transform="scale(1,-1)" x="703.50342" y="-189.48022" style="" xml:space="preserve" class="name-stureby"><tspan id="tspan11510-2-6" x="703.50342" y="-189.48022" style="">Stureby</tspan></text>
<text id="text9915-3-2-4-32-65-76-9-2-7-17-7-9" transform="scale(1,-1)" x="672.77014" y="-159.11357" style="" xml:space="preserve" class="name-bandhagen"><tspan id="tspan11510-2-68" x="672.77014" y="-159.11357" style="">Bandhagen</tspan></text>
<text id="text9915-3-2-4-32-65-76-9-2-7-17-7-8" transform="scale(1,-1)" x="642.4035" y="-127.98023" style="" xml:space="preserve" class="name-hgdalen"><tspan id="tspan11510-2-9" x="642.4035" y="-127.98023" style="">Hgdalen</tspan></text>
<text id="text9915-3-2-4-32-65-76-9-2-7-17-7-12" transform="scale(1,-1)" x="611.63678" y="-96.880249" style="" xml:space="preserve" class="name-rgsved"><tspan id="tspan11510-2-36" x="611.63678" y="-96.880249" style="">Rgsved</tspan></text>
<text id="text9915-3-3" transform="scale(1,-1)" x="315.51294" y="-835.71576" style="" xml:space="preserve" class="name-rinkeby"><tspan id="tspan9913-5-9" x="315.51294" y="-835.71576" style="">Rinkeby</tspan></text>
<text id="text9915-3-5-15-0-6" class="slanted-bottom name-hsselby-grd" transform="matrix(.70711 .70711 .70711 -.70711 0 0)" x="492.27664" y="-320.75705" style="" xml:space="preserve"><tspan id="tspan9913-5-6-0-9-3" x="492.27664" y="-320.75705" style="">Hsselby grd</tspan></text>
<text id="text9915-3-5-15-0-9-8" class="slanted-bottom name-johannelund" transform="matrix(.70711 .70711 .70711 -.70711 0 0)" x="521.11621" y="-291.9176" style="" xml:space="preserve"><tspan id="tspan9913-5-6-0-9-0-4" x="521.11621" y="-291.9176" style="">Johannelund</tspan></text>
<text id="text9915-3-5-15-0-9-0-1" class="slanted-bottom name-vllingby" transform="matrix(.70711 .70711 .70711 -.70711 0 0)" x="549.00842" y="-265.79706" style="" xml:space="preserve"><tspan id="tspan9913-5-6-0-9-0-6-8" x="549.00842" y="-265.79706" style="">Vllingby</tspan></text>
<text id="text9915-3-5-15-0-9-0-2-9" class="slanted-bottom name-rcksta" transform="matrix(.70711 .70711 .70711 -.70711 0 0)" x="576.88116" y="-238.68674" style="" xml:space="preserve"><tspan id="tspan9913-5-6-0-9-0-6-0-2" x="576.88116" y="-238.68674" style="">Rcksta</tspan></text>
<text id="text9915-3-5-15-0-9-0-9-4" class="slanted-bottom name-blackeberg" transform="matrix(.70711 .70711 .70711 -.70711 0 0)" x="605.43439" y="-210.40373" style="" xml:space="preserve"><tspan id="tspan9913-5-6-0-9-0-6-6-3" x="605.43439" y="-210.40373" style="">Blackeberg</tspan></text>
<text id="text9915-3-5-15-0-9-0-5-5" class="slanted-bottom name-islandstorget" transform="matrix(.70711 .70711 .70711 -.70711 0 0)" x="634.19031" y="-178.89954" style="" xml:space="preserve"><tspan id="tspan9913-5-6-0-9-0-6-5-8" x="634.19031" y="-178.89954" style="">Islandstorget</tspan></text>
<text id="text9915-3-5-15-0-9-0-91-6" class="slanted-bottom name-ngbyplan" transform="matrix(.70711 .70711 .70711 -.70711 0 0)" x="663.49957" y="-152.35378" style="" xml:space="preserve"><tspan id="tspan9913-5-6-0-9-0-6-9-4" x="663.49957" y="-152.35378" style="">ngbyplan</tspan></text>
<text id="text9915-3-5-15-0-9-0-6-8" class="slanted-bottom name-brommaplan" transform="matrix(.70711 .70711 .70711 -.70711 0 0)" x="719.74762" y="-96.105743" style="" xml:space="preserve"><tspan id="tspan9913-5-6-0-9-0-6-64-21" x="719.74762" y="-96.105743" style="">Brommaplan</tspan></text>
<text id="text9915-37-7-8" class="slanted-bottom end-station name-keshov" transform="matrix(.70711 .70711 .70711 -.70711 0 0)" x="691.20691" y="-119.78437" style="" xml:space="preserve"><tspan id="tspan9913-4-2-6" x="691.95691" y="-119.78437" style="">KESHOV</tspan></text>
<text id="text9915-3-5-15-0-9-0-6-9-2" class="slanted-bottom name-abrahamsberg" transform="matrix(.70711 .70711 .70711 -.70711 0 0)" x="749.0083" y="-66.829849" style="" xml:space="preserve"><tspan id="tspan9913-5-6-0-9-0-6-64-4-5" x="749.0083" y="-66.829849" style="">Abrahamsberg</tspan></text>
<text id="text9915-3-5-15-0-9-0-6-7-7" class="slanted-bottom name-stora-mossen" transform="matrix(.70711 .70711 .70711 -.70711 0 0)" x="777.08228" y="-38.771133" style="" xml:space="preserve"><tspan id="tspan9913-5-6-0-9-0-6-64-0-9" x="777.08228" y="-38.771133" style="">Stora mossen</tspan></text>
<text id="text9915-3-5-15-0-9-0-6-2-5" class="slanted-bottom name-kristineberg" transform="matrix(.70711 .70711 .70711 -.70711 0 0)" x="834.28003" y="18.441912" style="" xml:space="preserve"><tspan id="tspan9913-5-6-0-9-0-6-64-2-9" x="834.28003" y="18.441912" style="">Kristineberg</tspan></text>
<text id="text9915-3-5-15-0-9-0-6-1-3" class="slanted-bottom name-thorildsplan" transform="matrix(.70711 .70711 .70711 -.70711 0 0)" x="863.12036" y="47.266964" style="" xml:space="preserve"><tspan id="tspan9913-5-6-0-9-0-6-64-1-9" x="863.12036" y="47.266964" style="">Thorildsplan</tspan></text>
<text id="text9915-37-7-5-4" class="slanted-bottom end-station name-alvik" transform="matrix(.70711 .70711 .70711 -.70711 0 0)" x="804.50287" y="-6.478704" style="" xml:space="preserve"><tspan id="tspan9913-4-2-0-3" x="805.25287" y="-6.478704" style="">ALVIK</tspan></text>
</g></g></svg>